<svg xmlns="http://www.w3.org/2000/svg" width="39.997" height="57.139" viewBox="0 0 39.997 57.139"><path d="M11.986,0,0,11.986V57.139H40V0Zm-.558,3.251v8.177H3.251ZM38.093,55.235H1.9v-41.9H13.333V1.9h24.76Zm0,0" fill="#222"/><path d="M76.8,190.055,74.1,192.749l-2.693-2.694L70.063,191.4l2.693,2.694-2.693,2.694,1.347,1.347,2.693-2.694,2.693,2.694,1.347-1.347L75.449,194.1l2.693-2.694Zm0,0" transform="translate(-61.722 -167.431)" fill="#222"/><path d="M191.409,198.136l2.693-2.694,2.693,2.694,1.347-1.347-2.693-2.694,2.693-2.694-1.347-1.347-2.693,2.694-2.693-2.694-1.347,1.347,2.693,2.694-2.693,2.694Zm0,0" transform="translate(-167.437 -167.43)" fill="#222"/><path d="M98.344,301.127l1.347,1.347.885-.885a8.582,8.582,0,0,1,12.121,0l.885.885,1.347-1.347-.885-.885a10.487,10.487,0,0,0-14.814,0Zm0,0" transform="translate(-86.637 -261.803)" fill="#222"/></svg>